<?xml version="1.0" encoding="UTF-8" standalone="no"?>
<svg
   id="svg116"
   preserveAspectRatio="xMidYMid"
   viewBox="0 0 5556.1798 2016.4799"
   height="201.64799"
   width="555.61798"
   version="1.0"
   xmlns="http://www.w3.org/2000/svg"
   xmlns:svg="http://www.w3.org/2000/svg"
   xmlns:rdf="http://www.w3.org/1999/02/22-rdf-syntax-ns#"
   xmlns:cc="http://creativecommons.org/ns#"
   xmlns:dc="http://purl.org/dc/elements/1.1/">
  <metadata
     id="metadata122">
    <rdf:RDF>
      <cc:Work
         rdf:about="">
        <dc:format>image/svg+xml</dc:format>
        <dc:type
           rdf:resource="http://purl.org/dc/dcmitype/StillImage" />
      </cc:Work>
    </rdf:RDF>
  </metadata>
  <defs
     id="defs120" />
  <g
     id="g4735"
     transform="translate(-104.24159,-55.843803)">
    <g
       id="g6208"
       transform="translate(-0.18055122,-9.254726)">
      <g
         stroke="none"
         fill="#000000"
         id="layer101">
        <path
           id="path84"
           d="m 390,2005 v -74 l -142,-3 -143,-3 v -205 -205 l 143,-3 142,-3 v -34 c 0,-35 0,-35 45,-35 45,0 45,0 45,35 v 35 h 140 140 v 175 c 0,106 -4,184 -11,198 -17,38 -50,47 -164,47 H 480 v 75 75 h -45 -45 z m -2,-287 -3,-123 h -90 -90 l -3,123 -3,122 h 96 96 z m 272,-3 v -125 h -90 -90 v 125 125 h 90 90 z" />
        <path
           id="path86"
           d="m 872,1763 3,-318 h 335 335 l 3,288 2,288 -29,30 -29,29 H 1181 870 Z m 576,-5 2,-238 H 1210 970 v 240 240 l 238,-2 237,-3 z" />
        <path
           id="path88"
           d="m 1004,1926 c -3,-8 -4,-25 -2,-38 3,-21 8,-23 76,-26 l 72,-3 v -39 -40 h -75 -75 v -35 -35 h 75 c 73,0 75,-1 75,-25 0,-23 -3,-24 -72,-27 l -73,-3 -3,-37 -3,-38 h 206 206 l -3,38 -3,37 -77,3 c -75,3 -78,4 -78,27 0,24 2,25 80,25 h 80 v 35 35 h -80 -80 v 40 c 0,36 3,40 25,40 18,0 25,-5 25,-20 0,-18 7,-20 55,-20 h 56 l -3,58 -3,57 -198,3 c -165,2 -198,0 -203,-12 z" />
        <path
           id="path90"
           d="m 1947,2074 c -4,-4 -7,-38 -7,-75 v -68 l -137,-3 -138,-3 -3,-207 -2,-208 h 140 140 v -36 -35 l 48,3 c 45,3 47,4 50,35 l 3,32 137,3 137,3 3,177 c 2,174 2,177 -22,205 -24,27 -27,28 -140,31 l -115,4 -3,71 -3.4312,74.2344 -39.9224,0.3344 C 1969.4916,2077.0998 1951,2078 1947,2074 Z m -7,-359 v -125 h -90 -90 v 125 125 h 90 90 z m 278,3 -3,-123 -87,-3 -88,-3 v 126 125 h 90 91 z" />
        <path
           id="path92"
           d="m 2430,2036 c 0,-34 4,-46 15,-46 59,0 250,-100 263,-137 3,-10 -29,-13 -137,-13 h -141 v -40 c 0,-33 3,-40 20,-40 19,0 20,-7 20,-125 v -125 h 140 140 v -36 -35 l 48,3 c 45,3 47,4 50,36 l 3,32 h 135 134 v 125 125 h 25 c 23,0 25,4 25,40 v 40 h -146 -146 l 33,34 c 38,41 134,91 207,108 l 52,13 v 44 43 l -46,-7 c -83,-12 -200,-61 -264,-109 -62,-47 -73,-49 -98,-14 -26,36 -194,107 -289,123 l -43,7 z m 320,-361 v -85 h -90 -90 v 85 85 h 90 90 z m 280,0 v -85 h -90 -90 v 85 85 h 90 90 z" />
        <path
           id="path94"
           d="m 4190,1980 c 0,-55 -2,-100 -4,-100 -2,0 -24,20 -49,45 -26,25 -51,45 -57,45 -6,0 -10,-24 -10,-56 0,-54 2,-57 54,-109 30,-30 65,-74 79,-99 l 25,-45 -76,-3 -77,-3 v -40 -40 l 59,-3 59,-3 -34,-35 -34,-36 35,-29 34,-29 43,42 c 41,40 42,43 28,65 -15,23 -15,23 35,23 27,0 50,2 50,4 0,1 -11,33 -24,70 l -24,66 24,29 c 18,22 24,41 24,77 v 48 l -35,-34 -35,-34 v 142 142 h -45 -45 z" />
        <path
           id="path96"
           d="m 4380,2077 c 0,-2 34,-70 75,-150 l 75,-147 v -85 -85 h 45 45 v 99 c 0,96 1,100 23,103 21,3 22,8 25,91 l 3,87 h 84 85 v 45 45 h -114 c -137,0 -139,-2 -146,-109 l -5,-76 -50,92 -50,93 h -47 c -27,0 -48,-2 -48,-3 z" />
        <path
           id="path98"
           d="m 4957,2073 c -4,-3 -7,-71 -7,-150 v -143 l 333,2 332,3 3,103 c 3,115 -11,161 -54,181 -27,12 -595,16 -607,4 z m 553,-143 v -70 h -230 -230 v 70 70 h 230 230 z" />
        <path
           id="path100"
           d="m 3614,2062 c -24,-17 -44,-59 -44,-94 v -38 h -135 -135 v -205 -205 h 135 135 v -35 -35 h 50 50 v 35 35 h 140 140 v 176 176 l -29,29 c -29,29 -31,29 -140,29 h -111 v 30 30 h 170 170 v 40 40 h -192 c -106,0 -198,-4 -204,-8 z m -44,-252 v -40 h -90 -90 v 40 40 h 90 90 z m 280,0 v -40 h -90 -90 v 40 40 h 90 90 z m -280,-170 v -40 h -90 -90 v 40 40 h 90 90 z m 280,0 v -40 h -90 -90 v 40 40 h 90 90 z" />
        <path
           id="path102"
           d="m 4380,1640 v -180 h 200 200 v 180 180 h -45 -45 v -145 -145 h -110 -110 v 145 145 h -45 -45 z" />
        <path
           id="path104"
           d="m 5563,1745 c -17,-12 -76,-15 -334,-17 l -314,-3 v -35 c 0,-30 3,-35 26,-38 19,-2 51,-31 113,-103 l 87,-99 h 60 c 32,0 59,4 59,9 0,5 -4,11 -9,13 -7,3 -102,111 -140,161 -13,16 -3,17 170,17 h 183 l -32,-33 c -31,-32 -41,-57 -23,-57 5,0 19,-11 32,-24 l 23,-24 98,90 c 87,81 116,118 90,118 -5,0 -19,9 -32,20 -28,24 -30,24 -57,5 z" />
      </g>
      <g
         id="g2442"
         transform="matrix(4.9824242,0,0,10,6401.7447,-104.13843)">
        <g
           id="g4708"
           transform="matrix(0.90599273,0,0,0.46356375,-1151.7048,17.21649)">
          <g
             id="g4714"
             transform="translate(-10.095687,-0.54040156)">
            <path
               d="m 846.3033,0 c -2.30059,0 -4.36694,1.4075976 -5.20913,3.5484877 L 781.66384,154.62167 723.62941,7.0969831 C 721.94502,2.8151979 717.81233,0 713.21114,0 H 454.91623 v 54.501305 c 0,3.091533 2.50615,5.597718 5.59771,5.597718 h 73.88041 V 227.26075 h 60.43542 c 3.0915,0 5.59772,-2.50619 5.59772,-5.59772 V 60.099023 h 69.06853 c 2.28294,0 4.33711,1.386338 5.19123,3.503463 l 66.02332,163.658254 h 78.12868 c 2.28288,0 4.33705,-1.38632 5.19111,-3.50343 L 914.29901,0 Z"
               id="path1"
               style="fill:#000000;stroke-width:1.97474" />
            <rect
               x="912.16034"
               y="140.19064"
               class="st0"
               width="87.839653"
               height="87.839653"
               id="rect1"
               style="fill:#e80413;stroke-width:1.97474" />
            <path
               d="m 358.42902,168.8641 c -37.23363,0 -68.1357,-24.71578 -68.1357,-54.61957 0,-29.903795 28.53097,-54.145507 63.72586,-54.145507 h 78.11337 c 3.09156,0 5.59772,-2.506154 5.59772,-5.597718 V 0 h -83.71109 c -74.25947,0 -134.45867,51.149038 -134.45867,114.24453 0,63.09549 64.60904,114.66766 138.86851,114.66766 33.06117,0 60.03484,-6.51924 88.27787,-17.45216 l -22.77982,-56.42435 c -21.08711,8.53802 -40.39853,13.82842 -65.49805,13.82842 z"
               id="path2"
               style="fill:#000000;stroke-width:1.97474" />
            <path
               d="m 138.86851,168.8641 c -37.23363,0 -68.135715,-24.71578 -68.135715,-54.61957 0,-29.903795 28.53097,-54.145507 63.725855,-54.145507 h 78.11338 c 3.09156,0 5.59771,-2.506154 5.59771,-5.597718 V 0 H 134.45865 C 60.199183,0 0,51.149038 0,114.24453 c 0,63.09549 64.609052,114.66766 138.86851,114.66766 33.06117,0 60.03483,-6.51924 88.27786,-17.45216 l -22.77982,-56.42435 c -21.08712,8.53802 -40.39852,13.82842 -65.49804,13.82842 z"
               id="path3"
               style="fill:#000000;stroke-width:1.97474" />
          </g>
        </g>
      </g>
    </g>
  </g>
</svg>
