<!DOCTYPE svg PUBLIC "-//W3C//DTD SVG 20010904//EN" "http://www.w3.org/TR/2001/REC-SVG-20010904/DTD/svg10.dtd">
<svg version="1.0" xmlns="http://www.w3.org/2000/svg" width="1600px" height="295px" viewBox="0 0 16000 2950" preserveAspectRatio="xMidYMid meet">
<g id="layer101" fill="#21407a" stroke="none">
 <path d="M1705 2938 c-3 -7 -18 -51 -34 -98 -17 -47 -46 -130 -66 -185 -46 -127 -117 -331 -161 -460 -19 -55 -39 -109 -44 -120 -5 -11 -43 -117 -84 -235 -148 -425 -195 -550 -262 -688 -51 -108 -118 -214 -145 -230 -19 -12 -19 14 -19 1003 l0 1015 -445 0 -445 0 0 -1470 0 -1470 509 0 c423 0 523 3 592 16 46 9 89 19 94 24 6 4 33 15 60 24 143 46 336 202 442 357 50 73 114 208 149 314 18 55 51 152 73 215 335 978 307 900 315 880 3 -8 15 -40 26 -70 12 -30 37 -98 55 -150 19 -52 54 -149 78 -215 24 -66 61 -165 81 -220 20 -55 41 -109 46 -120 5 -11 23 -58 40 -105 17 -47 35 -94 40 -105 5 -11 41 -101 80 -201 93 -238 127 -301 210 -383 123 -123 337 -220 554 -250 47 -7 271 -11 572 -11 l494 0 0 1470 0 1470 -445 0 -445 0 0 -1062 0 -1062 -31 30 c-67 62 -164 239 -230 419 -16 44 -36 94 -43 110 -8 17 -26 68 -41 114 -15 46 -34 95 -41 110 -8 14 -14 29 -14 33 0 9 -126 352 -140 383 -5 11 -23 61 -40 110 -17 50 -35 99 -40 110 -5 11 -19 45 -30 75 -34 87 -117 238 -175 315 -50 66 -134 151 -200 203 -44 35 -163 93 -220 108 -70 19 -663 20 -670 2z"/>
 <path d="M9760 2939 c-303 -44 -593 -192 -816 -414 -230 -228 -338 -427 -417 -765 -18 -81 -22 -124 -21 -290 0 -192 0 -198 37 -341 74 -294 187 -492 401 -704 171 -170 381 -298 594 -361 208 -62 92 -57 1480 -61 l1273 -4 -163 163 c-90 90 -268 264 -397 388 l-233 225 -727 6 c-812 6 -762 1 -918 81 -59 30 -107 64 -158 113 -121 118 -179 228 -211 407 -16 89 -16 100 1 189 32 178 89 287 210 404 50 48 99 84 156 113 156 80 104 75 949 81 l755 6 380 383 c209 211 382 385 384 388 8 8 -2503 2 -2559 -7z"/>
 <path d="M4710 1470 l0 -1470 506 0 c556 0 561 0 693 62 148 70 306 211 454 408 98 131 148 202 185 262 45 73 67 108 187 293 43 66 97 149 120 185 23 36 125 191 227 345 243 369 298 454 305 471 3 8 9 14 14 14 5 0 9 -428 9 -1020 l0 -1020 450 0 450 0 0 1470 0 1470 -488 0 c-299 0 -510 -4 -545 -11 -82 -15 -214 -70 -287 -120 -133 -92 -292 -273 -467 -534 -62 -93 -129 -197 -143 -224 -7 -14 -17 -30 -22 -35 -5 -6 -50 -74 -99 -151 -157 -242 -208 -320 -218 -332 -6 -6 -24 -33 -40 -60 -36 -57 -235 -361 -321 -488 l-60 -89 0 1022 0 1022 -455 0 -455 0 0 -1470z"/>
 <path d="M13050 1270 l0 -720 -515 0 c-283 0 -515 -3 -515 -8 0 -4 120 -127 268 -275 l267 -267 873 0 c868 0 873 0 914 21 87 45 193 182 228 294 7 22 18 54 26 70 20 47 144 365 144 371 0 3 6 20 14 37 15 32 109 272 148 375 11 28 23 52 27 52 4 0 18 -30 31 -67 12 -38 29 -81 36 -98 8 -16 25 -61 38 -100 77 -223 241 -659 268 -715 38 -78 121 -164 198 -205 l55 -30 224 -3 224 -3 -7 26 c-4 14 -17 49 -30 78 -14 28 -33 75 -44 102 -18 47 -37 92 -160 390 -27 66 -86 210 -132 320 -45 110 -98 238 -117 285 -19 47 -48 119 -65 160 -16 41 -36 89 -44 105 -13 28 -46 109 -115 283 -16 39 -38 93 -50 120 -12 26 -27 63 -34 82 l-12 35 -277 3 -277 2 -34 -74 c-19 -40 -45 -100 -59 -132 -68 -164 -98 -232 -115 -264 -10 -19 -28 -62 -41 -95 -13 -33 -27 -64 -31 -70 -4 -5 -23 -48 -42 -95 -65 -158 -107 -255 -121 -280 -8 -14 -24 -50 -36 -80 -12 -29 -32 -77 -45 -104 -12 -28 -32 -72 -43 -98 -27 -62 -68 -116 -103 -134 -21 -10 -69 -14 -192 -14 l-164 0 -6 377 c-4 207 -7 531 -7 720 l0 343 -275 0 -275 0 0 -720z"/>
 </g>
<g id="layer102" fill="#e3262b" stroke="none">
 <path d="M13050 1270 l0 -720 -515 0 c-283 0 -515 -3 -515 -8 0 -4 120 -127 268 -275 l267 -267 873 0 c868 0 873 0 914 21 87 45 193 182 228 294 7 22 18 54 26 70 20 47 144 365 144 371 0 3 6 20 14 37 15 32 109 272 148 375 11 28 23 52 27 52 4 0 18 -30 31 -67 12 -38 29 -81 36 -98 8 -16 25 -61 38 -100 77 -223 241 -659 268 -715 40 -82 125 -168 203 -206 60 -29 61 -29 279 -32 l218 -3 -6 26 c-4 14 -17 49 -30 78 -14 28 -33 75 -44 102 -18 47 -37 92 -160 390 -27 66 -86 210 -132 320 -45 110 -98 238 -117 285 -19 47 -48 119 -65 160 -16 41 -36 89 -44 105 -13 28 -46 109 -115 283 -16 39 -38 93 -50 120 -12 26 -27 63 -34 82 l-12 35 -277 3 -276 2 -30 -63 c-30 -65 -83 -187 -127 -292 -14 -33 -40 -91 -57 -130 -18 -38 -39 -86 -46 -105 -7 -19 -17 -39 -21 -45 -4 -5 -23 -48 -42 -95 -65 -158 -107 -255 -121 -280 -8 -14 -24 -50 -36 -80 -12 -29 -32 -77 -45 -104 -12 -28 -32 -72 -43 -98 -27 -62 -68 -116 -103 -134 -21 -10 -69 -14 -192 -14 l-164 0 -6 377 c-4 207 -7 531 -7 720 l0 343 -275 0 -275 0 0 -720z"/>
 </g>

</svg>