<?xml version="1.0" encoding="UTF-8" standalone="no"?>
<!-- Generator: Adobe Illustrator 16.0.0, SVG Export Plug-In . SVG Version: 6.00 Build 0)  -->

<svg
   xmlns:dc="http://purl.org/dc/elements/1.1/"
   xmlns:cc="http://creativecommons.org/ns#"
   xmlns:rdf="http://www.w3.org/1999/02/22-rdf-syntax-ns#"
   xmlns:svg="http://www.w3.org/2000/svg"
   xmlns="http://www.w3.org/2000/svg"
   xmlns:sodipodi="http://sodipodi.sourceforge.net/DTD/sodipodi-0.dtd"
   xmlns:inkscape="http://www.inkscape.org/namespaces/inkscape"
   version="1.1"
   id="Layer_1"
   x="0px"
   y="0px"
   width="200px"
   height="279.814px"
   viewBox="0 0 200 279.814"
   enable-background="new 0 0 200 279.814"
   xml:space="preserve"
   inkscape:version="0.91 r13725"
   sodipodi:docname="Warner_Bros._Animation_logo.svg"><metadata
     id="metadata3336"><rdf:RDF><cc:Work
         rdf:about=""><dc:format>image/svg+xml</dc:format><dc:type
           rdf:resource="http://purl.org/dc/dcmitype/StillImage" /><dc:title /></cc:Work></rdf:RDF></metadata><defs
     id="defs3334" /><sodipodi:namedview
     pagecolor="#ffffff"
     bordercolor="#666666"
     borderopacity="1"
     objecttolerance="10"
     gridtolerance="10"
     guidetolerance="10"
     inkscape:pageopacity="0"
     inkscape:pageshadow="2"
     inkscape:window-width="1366"
     inkscape:window-height="709"
     id="namedview3332"
     showgrid="false"
     inkscape:zoom="1.4908457"
     inkscape:cx="322.45448"
     inkscape:cy="174.91805"
     inkscape:window-x="-8"
     inkscape:window-y="-8"
     inkscape:window-maximized="1"
     inkscape:current-layer="Layer_1" /><g
     id="g3371"
     style="fill:#333333"><g
       id="g3294"
       style="fill:#333333"><path
         d="m 184.137,50.079 c -25.472,0 -19.678,-20.925 -19.678,-20.925 H 153.808 V 19.828 C 135.627,11.588 105.924,9.781 98.107,9.437 V 9.415 H 98.085 C 90.273,9.759 59.977,11.588 41.796,19.828 v 9.326 H 31.144 c 0,0 5.783,20.925 -19.678,20.925 0,0 -15.137,128.192 86.02,184.448 v 0.354 l 0.316,-0.177 0.305,0.177 v -0.354 c 101.166,-56.256 86.03,-184.448 86.03,-184.448"
         id="path3296"
         style="fill:#ed1d24;fill-opacity:1"
         inkscape:connector-curvature="0" /></g><g
       id="g3298"
       style="fill:#333333"><path
         d="m 191.351,44.058 c -27.596,0 -21.33,-22.678 -21.33,-22.678 H 158.488 V 11.289 C 138.781,2.351 106.59,0.399 98.134,0.022 V 0 H 98.107 C 89.651,0.377 56.821,2.351 37.11,11.289 V 21.38 H 25.571 c 0,0 6.277,22.678 -21.313,22.678 0,0 -16.401,138.903 93.205,199.851 v 0.388 l 0.338,-0.199 0.333,0.199 v -0.388 C 207.746,182.961 191.351,44.058 191.351,44.058 M 98.106,234.526 v 0.354 l -0.305,-0.177 -0.316,0.177 v -0.354 C -3.671,178.271 11.455,50.079 11.455,50.079 c 25.472,0 19.678,-20.925 19.678,-20.925 H 41.784 V 19.828 C 59.976,11.588 90.272,9.759 98.084,9.415 h 0.022 v 0.022 c 7.801,0.343 37.521,2.151 55.701,10.391 v 9.326 h 10.651 c 0,0 -5.794,20.925 19.678,20.925 0.001,0 15.137,128.192 -86.03,184.447"
         id="path3300"
         inkscape:connector-curvature="0"
         style="fill:#ffffff" /></g><path
       style="fill:#ffffff"
       inkscape:connector-curvature="0"
       id="path3304"
       d="m 39.05,66.036 -12.936,7.607 c -0.987,0.654 12.925,72.912 40.027,110.017 l 4.713,-30.884 c 0,0 10.995,35.974 21.874,51.277 l 0.349,-171.13 -13.739,2.273 0.477,101.933 c 0,0 -13.501,-46.253 -16.251,-93.327 L 50.54,49.058 c 0,0 2.146,31.549 12.902,78.035 L 62.1,145.08 c 0,0 -15.509,-32.214 -23.05,-79.044" /><path
       style="fill:#ffffff"
       inkscape:connector-curvature="0"
       id="path3306"
       d="M 107.066,203.1 V 32.935 c 0,0 27.368,2.141 49.957,26.637 22.583,24.507 9.204,43.271 -14.582,55.579 -0.333,0.167 11.832,5.134 8.971,18.996 -2.872,13.861 -5.622,22.932 -44.346,68.953 m 21.757,-81.984 -8.971,3.471 v 41.574 c 0,0 11.96,-13.973 16.263,-25.438 0,0 4.181,-16.258 -7.292,-19.607 m -8.128,-70.505 v 60.581 c 0,0 23.664,-7.529 30.717,-17.565 0.134,-0.189 17.682,-21.381 -30.717,-43.016" /><path
       style="fill:#ffffff"
       inkscape:connector-curvature="0"
       id="path3308"
       d="m 94.147,108.996 c 0,-3.094 2.506,-5.6 5.595,-5.6 3.088,0 5.6,2.506 5.6,5.6 0,3.083 -2.512,5.589 -5.6,5.589 -3.088,0 -5.595,-2.506 -5.595,-5.589" /><path
       style="fill:#333333"
       inkscape:connector-curvature="0"
       id="path3310"
       d="m 33.872,257.98 c 1.974,0.155 3.654,0.343 4.846,0.543 l 0.799,4.358 c -2.229,-0.3 -4.758,-0.544 -7.43,-0.743 -1.885,4.602 -3.515,9.459 -4.951,14.56 -5.256,0.345 -11.195,-2.528 -16.484,-6.188 -2.179,3.072 -4.313,6.188 -6.293,9.304 -2.179,-0.698 -3.61,-3.759 -2.029,-5.544 1.486,-2.141 3.077,-4.303 4.652,-6.487 -2.723,-2.174 -5.14,-4.458 -6.98,-6.288 0.205,-1.885 0.792,-2.827 2.872,-2.972 3.465,-0.244 7.674,-0.487 11.982,-0.644 6.98,-8.173 14.654,-15.791 22.672,-21.579 2.384,1.486 5.057,4.802 3.964,6.676 -2.774,4.857 -5.347,9.814 -7.62,15.004 m -22.234,3.815 c -2.179,0.1 -4.258,0.199 -6.188,0.388 0.942,0.998 2.124,2.041 3.51,3.027 l 2.678,-3.415 z m 0.987,5.889 c 2.872,1.829 5.85,3.371 7.929,4.258 1.325,-3.415 2.667,-6.831 4.153,-10.191 -2.517,-0.066 -5.051,-0.11 -7.53,-0.11 -1.574,1.972 -3.066,4.012 -4.552,6.043 m 7.679,-9.904 c 2.135,-0.044 4.208,-0.044 6.188,0 2.374,-5.2 4.996,-10.19 8.073,-15.004 -5.007,4.458 -9.753,9.56 -14.261,15.004" /><path
       style="fill:#333333"
       inkscape:connector-curvature="0"
       id="path3312"
       d="m 47.484,264.911 c -1.586,0.798 -6.731,5.545 -9.254,10.401 l -0.793,1.686 c -1.342,0 -4.757,-2.628 -4.064,-4.469 l 5.345,-13.995 c 2.39,0.776 5.6,2.662 4.702,4.946 l -1.237,2.816 c 3.771,-4.214 8.128,-7.274 9.121,-7.274 0.881,0 3.859,3.56 2.223,6.388 -0.792,1.33 -1.68,2.972 -2.179,4.458 l 0.1,1.131 c 0.737,0 8.267,-6.876 10.696,-12.465 0.593,1.132 -0.943,2.917 -0.394,5.534 -5.306,7.729 -13.273,12.93 -15.059,12.93 -0.737,0 -3.964,-2.328 -3.271,-4.258 0.798,-2.184 2.478,-5.501 4.064,-7.829" /><path
       style="fill:#333333"
       inkscape:connector-curvature="0"
       id="path3314"
       d="m 64.96,268.438 -0.188,1.974 c 1.042,0 7.524,-6.842 10.002,-10.79 v 4.447 c -4.757,5.899 -11.494,12.93 -14.261,12.93 -1.242,0 -4.408,-2.628 -3.715,-4.458 l 5.345,-14.006 c 2.373,0.776 5.544,2.817 4.702,4.946 M 69.03,247.29 c 2.029,0.499 3.166,2.728 2.811,3.959 -0.382,1.431 -2.861,4.259 -5.389,5.057 -1.874,-0.688 -3.216,-2.329 -2.772,-3.959 0.444,-1.597 3.121,-4.514 5.35,-5.057" /><path
       style="fill:#333333"
       inkscape:connector-curvature="0"
       id="path3316"
       d="m 84.018,264.911 c -3.216,2.185 -7.236,7.174 -10.152,12.087 -1.342,0 -4.746,-2.628 -4.053,-4.469 l 5.345,-13.995 c 2.378,0.776 5.589,2.662 4.702,4.946 l -1.53,3.471 c 3.759,-4.769 8.517,-8.028 9.548,-8.028 0.549,0 3.715,2.771 2.872,5.046 l -1.336,3.271 c 3.958,-4.701 8.866,-8.217 9.958,-8.217 0.887,0 3.859,3.56 2.223,6.388 -0.793,1.33 -1.68,2.972 -2.179,4.458 l 0.1,1.131 c 0.743,0 4.408,-2.961 7.43,-6.976 1.181,-1.541 2.329,-2.572 2.872,0.045 -5.301,7.729 -13.273,12.93 -15.059,12.93 -0.737,0 -3.959,-2.328 -3.271,-4.258 0.798,-2.185 2.478,-5.501 4.069,-7.829 -1.741,0.898 -7.973,6.631 -10.052,12.043 -0.898,0 -5.539,-2.096 -4.702,-4.114" /><path
       style="fill:#333333"
       inkscape:connector-curvature="0"
       id="path3318"
       d="m 123.035,268.438 -0.205,1.984 c 1.042,0 7.529,-6.842 10.002,-10.801 v 4.458 c -4.757,5.889 -11.478,12.93 -14.261,12.93 -1.236,0 -4.407,-2.639 -3.715,-4.469 l 0.355,-0.942 c -2.373,2.828 -5.451,5.411 -7.636,5.411 -1.324,0 -5.832,-4.357 -4.49,-7.341 2.473,-5.434 8.604,-11.033 10.684,-11.033 1.542,0 3.959,1.785 4.713,4.402 l 1.725,-4.503 c 2.385,0.788 5.551,2.828 4.713,4.946 m -14.516,5.6 c -0.644,1.087 -0.942,2.628 -0.644,3.36 0.898,-0.388 6.881,-4.891 7.779,-6.875 l -1.636,-1.83 c -1.49,0 -3.863,2.429 -5.499,5.345" /><path
       style="fill:#333333"
       inkscape:connector-curvature="0"
       id="path3320"
       d="m 142.94,250.462 h 3.903 c 0.399,1.087 -0.438,3.46 -1.281,3.46 h -3.964 l -5.539,14.516 -0.205,1.974 c 1.042,0 7.529,-6.842 10.002,-10.79 v 4.447 c -4.746,5.899 -11.478,12.93 -14.261,12.93 -1.225,0 -4.408,-2.628 -3.715,-4.458 l 7.131,-18.618 H 110.36 c 0.398,-1.431 1.535,-3.46 3.759,-3.46 h 22.234 l 3.521,-9.071 c 2.373,0.799 5.101,3.926 4.259,6.044" /><path
       style="fill:#333333"
       inkscape:connector-curvature="0"
       id="path3322"
       d="m 149.084,268.438 -0.205,1.974 c 1.048,0 4.757,-4.258 6.293,-5.943 l 3.709,-0.399 c -4.757,5.899 -11.488,12.93 -14.261,12.93 -1.236,0 -4.408,-2.628 -3.715,-4.458 l 5.351,-14.006 c 2.373,0.776 5.539,2.817 4.702,4.946 m 2.179,-16.192 c 2.035,0.499 3.166,2.728 2.828,3.959 -0.399,1.431 -2.872,4.259 -5.406,5.057 -1.874,-0.688 -3.211,-2.329 -2.772,-3.959 0.442,-1.597 3.126,-4.514 5.35,-5.057" /><path
       style="fill:#333333"
       inkscape:connector-curvature="0"
       id="path3324"
       d="m 171.396,265.565 c 2.434,-0.998 5.999,-3.261 6.941,-5.944 v 4.259 c -2.24,2.473 -6.099,4.945 -9.521,5.999 -2.816,3.261 -8.66,7.13 -11.433,7.13 -3.021,0 -5.494,-5.899 -4.347,-8.915 1.574,-4.17 6.631,-8.728 10.535,-9.903 1.535,1.132 2.783,2.518 3.077,3.615 0.843,-0.698 1.874,-1.286 3.065,-1.686 1.592,-0.499 3.609,2.473 2.828,3.659 m -8.32,6.144 c -0.648,-0.399 -0.987,-1.142 -0.987,-2.428 0,-0.788 0.443,-2.085 1.281,-3.36 -1.486,0.731 -2.872,1.719 -4.054,3.26 -1.841,2.329 -1.841,4.702 -1.042,5.501 1.192,-0.644 2.872,-1.387 4.802,-2.973" /><path
       style="fill:#333333"
       inkscape:connector-curvature="0"
       id="path3326"
       d="m 187.497,264.911 c -1.586,0.798 -6.731,5.545 -9.254,10.401 l -0.793,1.686 c -1.342,0 -4.758,-2.628 -4.064,-4.469 l 5.345,-13.995 c 2.385,0.776 5.601,2.662 4.702,4.946 l -1.236,2.816 c 3.771,-4.214 8.117,-7.274 9.115,-7.274 0.887,0 3.864,3.56 2.229,6.388 -0.798,1.33 -1.68,2.972 -2.179,4.458 l 0.1,1.131 c 0.737,0 5.246,-3.36 7.574,-6.133 0.987,0.888 1.536,2.373 0.044,3.903 -2.722,2.772 -10.596,8.229 -12.375,8.229 -0.737,0 -3.965,-2.328 -3.271,-4.258 0.792,-2.184 2.477,-5.501 4.063,-7.829" /><polyline
       style="fill:#333333"
       id="polyline3328"
       points="114.519,241.845 113.415,241.845 113.415,238.563 112.506,238.563 112.506,237.632     115.428,237.632 115.428,238.563 114.519,238.563   " /><polyline
       style="fill:#333333"
       id="polyline3330"
       points="116.287,237.632 117.368,237.632 118.233,239.883 119.126,237.632 120.229,237.632     120.867,241.845 119.764,241.845 119.459,239.417 119.447,239.417 118.433,241.845 117.995,241.845 117.024,239.417     117.014,239.417 116.664,241.845 115.572,241.845   " /></g></svg>